<?xml version="1.0" encoding="UTF-8" standalone="no"?>
<svg
   version="1.1"
   id="svg2"
   width="142.20348"
   height="141.69528"
   xmlns="http://www.w3.org/2000/svg"
   xmlns:svg="http://www.w3.org/2000/svg">
  <defs
     id="defs2" />
  <g
     class="logo-entity"
     id="symbol"
     transform="matrix(1.422034,0,0,1.7930289,4.6928711e-6,-6.5560913e-6)">
    <g
       class="logo-entity-inner"
       id="g2">
      <g
         data-noun-id="6743117"
         data-attribution=""
         transform="scale(1.228934)"
         id="g1">
        <path
           d="M 24.191,64.012 9.578,60.0979 C 9.17566,59.98852 9.25378,59.39087 9.67175,59.39087 h 33.426 c 0.41797,0 0.49609,-0.59766 0.09375,-0.70703 l -26.555,-7.1133 c -0.40234,-0.10937 -0.32422,-0.70703 0.09375,-0.70703 h 24.562 c 0.41797,0 0.49609,-0.59766 0.09375,-0.70703 L 20.8,44.64088 c -0.40234,-0.10938 -0.32422,-0.70703 0.09375,-0.70703 l 15.199,0.0039 c 0.13281,0 0.24609,-0.06641 0.30859,-0.17969 l 14.906,-25.816 c 0.03516,-0.05859 0.08984,-0.08984 0.15625,-0.08984 0.06641,0 0.12109,0.03125 0.15625,0.08984 l 15.047,26.062 c 0.05078,0.08594 0.12109,0.14062 0.21484,0.16797 l 21.805,5.9883 c 0.40234,0.10938 0.32031,0.70703 -0.09375,0.70703 h -24.633 c -0.41797,0 -0.49609,0.59766 -0.09375,0.70703 l 26.555,7.1133 c 0.40234,0.10938 0.32422,0.70703 -0.09375,0.70703 h -33.426 c -0.41797,0 -0.49609,0.59766 -0.09375,0.70703 l 22.508,6.0312 c 0.09766,0.02734 0.16797,0.08203 0.21875,0.16797 l 9,15.586 c 0.03516,0.05859 0.03516,0.12109 0,0.17969 -0.03516,0.0586 -0.08984,0.08984 -0.15625,0.08984 l -73.828,-0.0078 c -0.06641,0 -0.12109,-0.03125 -0.15625,-0.08984 -0.03516,-0.05859 -0.03516,-0.12109 0,-0.17969 l 10.012,-17.344 c 0.12109,-0.20312 0.01172,-0.46484 -0.21484,-0.52344 z"
           fill-rule="evenodd"
           transform="translate(-9.3139038,-17.852217)"
           fill="#000000"
           id="path1" />
      </g>
    </g>
  </g>
</svg>
